<?xml version="1.0" encoding="UTF-8"?>
<svg version="1.1" xmlns="http://www.w3.org/2000/svg" width="1920" height="631">
<path d="M0 0 C2.64 2.31 5.28 4.62 8 7 C8.33 -2.24 8.66 -11.48 9 -21 C45.3 -21 81.6 -21 119 -21 C119 81.63 119 184.26 119 290 C82.7 290 46.4 290 9 290 C8.67 279.44 8.34 268.88 8 258 C5.36 260.97 2.72 263.94 0 267 C-3.50571269 270.21598437 -7.22396603 273.10805861 -11 276 C-11.77988281 276.60714844 -12.55976562 277.21429687 -13.36328125 277.83984375 C-25.2387887 286.64169045 -38.74487032 292.36668466 -53 296 C-54.81177734 296.47953125 -54.81177734 296.47953125 -56.66015625 296.96875 C-93.76489653 305.12197879 -135.46331208 296.89020219 -167.5 277 C-203.13789736 254.18673843 -228.33224544 218.02742867 -237.96875 176.859375 C-248.35285124 129.20788818 -241.19181364 79.42273994 -215 38 C-209.7193979 30.07338933 -203.54179579 22.90180027 -197 16 C-196.31260742 15.25580811 -196.31260742 15.25580811 -195.61132812 14.49658203 C-146.68951847 -38.27465289 -55.33218051 -48.67628053 0 0 Z M-110.75 87.875 C-125.18916785 104.60206416 -128.35434574 123.57771934 -127 145 C-124.69858488 162.98097504 -114.3831323 178.2709627 -101 190 C-85.73430665 201.75010091 -66.26250525 205.93628798 -47.3359375 203.53515625 C-27.91966687 200.13831387 -11.65175912 190.86480731 -0.13769531 174.72167969 C10.97947066 157.89801993 13.89355857 140.42940525 11.6015625 120.54296875 C8.91169312 107.77482254 1.70771828 95.5429484 -7 86 C-7.79277344 85.06994141 -7.79277344 85.06994141 -8.6015625 84.12109375 C-18.49839231 73.22483039 -34.68741706 65.92773048 -49.34912109 64.82299805 C-73.83379822 64.20410037 -93.48613246 69.4871077 -110.75 87.875 Z " fill="#0063B0" transform="translate(1700,302)"/>
<path d="M0 0 C0.74894531 0.67546875 1.49789063 1.3509375 2.26953125 2.046875 C29.20757985 27.72305982 46.20283319 66.54048161 47.19580078 103.60617065 C48.17905726 151.87120804 35.6869047 193.36600327 2 229 C-26.52470745 258.29227441 -65.36101183 273.34191557 -105 280 C-105.75716309 280.13277344 -106.51432617 280.26554687 -107.29443359 280.40234375 C-151.35082939 287.83379454 -200.83806101 280.27760868 -240 259 C-240.90806396 258.51877686 -240.90806396 258.51877686 -241.83447266 258.02783203 C-254.97391271 251.04872292 -266.19885791 242.20009654 -277 232 C-277.79792969 231.26652344 -278.59585938 230.53304688 -279.41796875 229.77734375 C-291.43651283 218.33202117 -300.44709506 204.68702762 -308 190 C-308.31807617 189.39365723 -308.63615234 188.78731445 -308.96386719 188.16259766 C-319.06711343 168.7109454 -325.07211599 145.69312995 -325.203125 123.7578125 C-325.20882507 122.99056854 -325.21452515 122.22332458 -325.22039795 121.43283081 C-325.22978725 119.81428375 -325.23635756 118.19571809 -325.24023438 116.57714844 C-325.24983811 114.16565064 -325.28087646 111.75504489 -325.3125 109.34375 C-325.41087952 95.00335284 -323.67926431 80.9302639 -319.4375 67.1875 C-319.18774414 66.3725708 -318.93798828 65.5576416 -318.68066406 64.71801758 C-309.25267174 35.44940118 -290.39895302 8.68204353 -266 -10 C-265.06542969 -10.73863281 -264.13085938 -11.47726562 -263.16796875 -12.23828125 C-190.52367382 -68.54490343 -76.36065443 -65.13271963 0 0 Z M-191 67 C-204.39671361 82.84899339 -210.69887008 101.4063798 -209 122 C-206.32117077 141.49363424 -197.17492462 158.36716633 -182 171 C-164.87921819 183.09782464 -145.27858665 187.36979572 -124.625 184 C-113.17051961 181.47977543 -101.77310001 175.83383873 -93 168 C-92.36191406 167.4534375 -91.72382812 166.906875 -91.06640625 166.34375 C-77.39873616 153.76842781 -70.06759066 136.19410272 -68.78125 117.88671875 C-68.20759595 98.31077444 -75.28096075 80.76065625 -88 66 C-98.80052803 54.6319866 -113.619655 45.83555944 -129.58032227 44.83886719 C-154.09844107 44.46257412 -173.8924329 48.36041197 -191 67 Z " fill="#0063B0" transform="translate(968,321)"/>
<path d="M0 0 C22.57196458 20.29727047 31.35013509 47.10947006 33.16859221 76.74782133 C33.41391224 83.21187991 33.37779278 89.67463986 33.34057617 96.14208984 C33.33972703 98.25368233 33.34021063 100.3652757 33.34190369 102.47686768 C33.34275386 108.13248973 33.32528917 113.78791543 33.30418181 119.44349241 C33.28524934 125.38245327 33.28365166 131.32142011 33.28010559 137.26040649 C33.27083329 148.47241183 33.24628565 159.68432794 33.21605712 170.89629424 C33.18236197 183.67526694 33.16598934 196.45424421 33.15097082 209.23325038 C33.11973106 235.48888278 33.06706567 261.74443636 33 288 C18.67505574 288.0233302 4.35011441 288.04091336 -9.97484493 288.05181217 C-16.6257353 288.05704174 -23.27660786 288.06414072 -29.92749023 288.07543945 C-36.34002877 288.08626571 -42.75255504 288.09227628 -49.16510201 288.09487724 C-51.61764278 288.09673197 -54.07018285 288.10035347 -56.52271843 288.10573006 C-59.94476677 288.11293702 -63.36676371 288.11399109 -66.78881836 288.11352539 C-67.81380432 288.11712067 -68.83879028 288.12071594 -69.89483643 288.12442017 C-70.82176804 288.1230455 -71.74869965 288.12167084 -72.70372009 288.12025452 C-73.51397613 288.12117631 -74.32423216 288.1220981 -75.1590414 288.12304783 C-77 288 -77 288 -78 287 C-78.10279468 284.73473378 -78.13356211 282.46620136 -78.13803101 280.1986084 C-78.14085229 279.47879272 -78.14367357 278.75897704 -78.14658034 278.01734877 C-78.15496473 275.58642497 -78.15626794 273.15554649 -78.15771484 270.72460938 C-78.16238079 268.98851899 -78.16752399 267.25242983 -78.17311096 265.51634216 C-78.18441779 261.765499 -78.19283997 258.01466391 -78.19923019 254.2638092 C-78.20990387 248.31935669 -78.23015227 242.37496126 -78.25234985 236.43054199 C-78.31427837 219.52191823 -78.36812447 202.61329605 -78.40136719 185.70458984 C-78.41979023 176.3749165 -78.44883175 167.04533717 -78.4893719 157.71573305 C-78.5103335 152.78277028 -78.52588346 147.84992552 -78.52817917 142.91691589 C-78.53034788 138.26130265 -78.54644033 133.60593404 -78.57256889 128.95039558 C-78.57968272 127.25468869 -78.58190207 125.5589519 -78.57846642 123.86323357 C-78.54781637 105.83580729 -79.62910816 84.63595358 -93 71 C-104.21514086 61.06950255 -118.29711005 58.40243087 -132.91796875 59.21875 C-147.30628384 60.49456119 -159.5441576 65.04011548 -169.625 75.625 C-179.65425735 87.66926795 -183.08192441 103.20449846 -183.15821838 118.56138611 C-183.16315636 119.29015585 -183.16809434 120.01892559 -183.17318195 120.76977926 C-183.18845149 123.19409224 -183.19688873 125.61837896 -183.20532227 128.04272461 C-183.2149091 129.78757963 -183.22491965 131.53243236 -183.23532104 133.27728271 C-183.26228895 138.00190948 -183.28334231 142.72654614 -183.30332303 147.45120692 C-183.32523279 152.39331654 -183.35259701 157.3353959 -183.37937927 162.27748108 C-183.4292388 171.63058835 -183.47420257 180.98371247 -183.51740164 190.33685261 C-183.5668317 200.98737642 -183.6217284 211.63786987 -183.67708123 222.28836429 C-183.79079777 244.19221455 -183.8976592 266.09609383 -184 288 C-198.32494426 288.0233302 -212.64988559 288.04091336 -226.97484493 288.05181217 C-233.6257353 288.05704174 -240.27660786 288.06414072 -246.92749023 288.07543945 C-253.34002877 288.08626571 -259.75255504 288.09227628 -266.16510201 288.09487724 C-268.61764278 288.09673197 -271.07018285 288.10035347 -273.52271843 288.10573006 C-276.94476677 288.11293702 -280.36676371 288.11399109 -283.78881836 288.11352539 C-285.3262973 288.1189183 -285.3262973 288.1189183 -286.89483643 288.12442017 C-287.82176804 288.1230455 -288.74869965 288.12167084 -289.70372009 288.12025452 C-290.51397613 288.12117631 -291.32423216 288.1220981 -292.1590414 288.12304783 C-294 288 -294 288 -295 287 C-295.09717832 285.34753584 -295.12371557 283.69088628 -295.12304783 282.03556728 C-295.12503888 280.95372361 -295.12702993 279.87187993 -295.12908131 278.75725311 C-295.12616847 277.55397198 -295.12325563 276.35069085 -295.12025452 275.11094666 C-295.12110894 273.844191 -295.12196337 272.57743534 -295.12284368 271.27229315 C-295.12509102 267.74005333 -295.12106411 264.20784355 -295.11606562 260.67560756 C-295.11176472 256.87259028 -295.11320729 253.06957482 -295.1139679 249.26655579 C-295.11449336 242.67221103 -295.11134422 236.07787613 -295.10573006 229.48353386 C-295.09761809 219.94911143 -295.09500015 210.41469379 -295.09374207 200.88026828 C-295.09155107 185.41293331 -295.08488969 169.9456036 -295.07543945 154.47827148 C-295.06626657 139.4493004 -295.05918513 124.42033074 -295.05493164 109.39135742 C-295.05466892 108.46565152 -295.05440619 107.53994561 -295.05413551 106.58618801 C-295.05283051 101.94239657 -295.05156679 97.29860511 -295.05032361 92.65481365 C-295.0399495 54.10320443 -295.0215104 15.55160493 -295 -23 C-258.37 -23 -221.74 -23 -184 -23 C-183.505 -5.18 -183.505 -5.18 -183 13 C-179.04 8.71 -175.08 4.42 -171 0 C-124.46189289 -41.12669931 -46.74903737 -41.10824444 0 0 Z " fill="#0063B0" transform="translate(549,304)"/>
<path d="M0 0 C41.25 0 82.5 0 125 0 C134.53213584 20.18569942 143.99603548 40.32597679 153.1875 60.65625 C157.53574398 70.24510145 162.05780442 79.75105362 166.57394409 89.2616272 C171.84024941 100.35776088 176.99930575 111.49723966 182.0625 122.6875 C182.37495667 123.3779541 182.68741333 124.0684082 183.00933838 124.77978516 C183.31579285 125.45702637 183.62224731 126.13426758 183.93798828 126.83203125 C184.53544984 128.1523582 185.13294252 129.47267107 185.73046875 130.79296875 C186.15721893 131.73600357 186.15721893 131.73600357 186.59259033 132.6980896 C188.98603612 137.98143522 191.41103794 143.24918808 193.875 148.5 C194.19090088 149.17635498 194.50680176 149.85270996 194.83227539 150.54956055 C196.10527534 153.47910705 196.10527534 153.47910705 198 156 C198.2995459 155.3507959 198.5990918 154.7015918 198.90771484 154.03271484 C207.67056456 135.05912605 216.58777733 116.16126169 225.54748535 97.27999878 C229.58293874 88.77453901 233.6056531 80.26308074 237.625 71.75 C237.97244263 71.01419708 238.31988525 70.27839417 238.67785645 69.52029419 C243.61664979 59.06017801 248.5456372 48.59546844 253.46939087 38.12826538 C255.43733415 33.9450092 257.40609295 29.7621367 259.37486267 25.57926941 C260.76771595 22.61974036 262.15976401 19.65984105 263.55029297 16.69921875 C264.84416754 13.9444316 266.14044441 11.1907904 267.4375 8.4375 C267.79714844 7.66978271 268.15679688 6.90206543 268.52734375 6.11108398 C270.88582117 1.11417883 270.88582117 1.11417883 272 0 C273.59422036 -0.09597204 275.1927045 -0.12187924 276.78981018 -0.12025452 C277.82612579 -0.12162918 278.86244141 -0.12300385 279.93016052 -0.12442017 C281.64997887 -0.11902725 281.64997887 -0.11902725 283.40454102 -0.11352539 C284.60437622 -0.11367142 285.80421143 -0.11381744 287.04040527 -0.1139679 C290.33985191 -0.11338894 293.63923664 -0.10835978 296.9386723 -0.10139394 C300.38334297 -0.09515973 303.82801438 -0.09455655 307.27268982 -0.09336853 C313.7998273 -0.09025541 320.32694811 -0.08204229 326.85407823 -0.07201904 C334.28322016 -0.0608573 341.71236286 -0.0553473 349.14151108 -0.05032361 C364.42768372 -0.03985966 379.71383972 -0.0222606 395 0 C393.77911308 3.08440241 392.51790253 6.07769963 391.00390625 9.02978516 C390.61589844 9.78893219 390.22789062 10.54807922 389.828125 11.33023071 C389.41046875 12.1416452 388.9928125 12.95305969 388.5625 13.7890625 C388.12292969 14.64696381 387.68335938 15.50486511 387.23046875 16.38876343 C386.29678627 18.20990994 385.36202666 20.03050457 384.42626953 21.85058594 C383.03042891 24.56580895 381.63794953 27.28273258 380.24609375 30 C374.98226701 40.26474893 369.65306196 50.49291964 364.26855469 60.69482422 C361.18969179 66.53053019 358.15542256 72.38900289 355.125 78.25 C350.76346545 86.6737481 346.39233857 95.0922718 342 103.5 C337.65121358 111.82535977 333.32091854 120.16014357 329 128.5 C322.20642331 141.61132421 315.37821491 154.70435432 308.54101562 167.79296875 C302.07701511 180.16863863 295.63438208 192.55512386 289.21142578 204.95214844 C285.00184091 213.07468903 280.77474541 221.18792056 276.5390625 229.296875 C272.67874893 236.69070311 268.83725883 244.09418474 265 251.5 C263.23228529 254.90944046 261.46434723 258.31876498 259.69628906 261.72802734 C258.59867121 263.84522286 257.50162763 265.96271625 256.40527344 268.08056641 C254.89742864 270.99238225 253.38653281 273.90259726 251.875 276.8125 C251.45734375 277.62074219 251.0396875 278.42898438 250.609375 279.26171875 C245.23223787 289.59741348 239.58192517 299.76647051 234 310 C209.25 310 184.5 310 159 310 C155.04 302.08 151.08 294.16 147 286 C143.21112356 278.76582844 143.21112356 278.76582844 139.39892578 271.54394531 C135.7541498 264.66094951 132.21666423 257.72277725 128.67132568 250.78820801 C126.50325013 246.54772465 124.33144002 242.30915376 122.16015625 238.0703125 C121.7230835 237.21683228 121.28601074 236.36335205 120.83569336 235.48400879 C116.69469751 227.39952025 112.53737249 219.32349859 108.375 211.25 C106.98693234 208.5573158 105.5989171 205.86460459 104.2109375 203.171875 C103.69567253 202.17228256 103.69567253 202.17228256 103.16999817 201.15249634 C99.10794191 193.27110336 95.05413487 185.38546966 91 177.5 C85.17168161 166.16407889 79.33865387 154.83060117 73.5 143.5 C67.68278193 132.21075734 61.87023092 120.91912637 56.0625 109.625 C55.68980988 108.90024475 55.31711975 108.1754895 54.93313599 107.42877197 C51.91009436 101.54986904 48.88735318 95.67081164 45.86462402 89.79174805 C40.61607772 79.58363874 35.36664397 69.37598664 30.11578369 59.16906738 C28.99421519 56.98875442 27.8728254 54.80834961 26.75146484 52.62792969 C24.54346898 48.33486128 22.33447565 44.04230698 20.125 39.75 C19.7736499 39.06726013 19.4222998 38.38452026 19.06030273 37.68109131 C13.88457229 27.62582461 8.67453867 17.5893298 3.40087891 7.58496094 C2.9476123 6.72161133 2.4943457 5.85826172 2.02734375 4.96875 C1.63281006 4.22044922 1.23827637 3.47214844 0.83178711 2.70117188 C0 1 0 1 0 0 Z " fill="#0063B0" transform="translate(1039,281)"/>
<path d="M0 0 C38.61 0 77.22 0 117 0 C117 128.37 117 256.74 117 389 C78.39 389 39.78 389 0 389 C0 260.63 0 132.26 0 0 Z " fill="#0063B0" transform="translate(79,202)"/>
<path d="M0 0 C38.61 0 77.22 0 117 0 C117 38.61 117 77.22 117 117 C78.39 117 39.78 117 0 117 C0 78.39 0 39.78 0 0 Z " fill="#FF8300" transform="translate(79,34)"/>
<path d="M0 0 C6.32865501 5.1652053 10.13343145 11.11520197 11.0234375 19.36328125 C11.14301787 29.1569136 9.20916201 36.35442688 2.53125 43.6796875 C-5.33031563 50.37534297 -14.3159961 51.99600775 -24.3125 51.25 C-32.57326113 49.5926277 -38.74177982 45.79052155 -43.625 38.9375 C-47.46451416 32.76356124 -49.0563925 26.56494289 -48.3125 19.25 C-46.14034522 10.58739471 -42.5292044 3.51859135 -34.8125 -1.31640625 C-23.3216345 -7.31833153 -10.87897237 -7.66240238 0 0 Z M-29.3125 13.25 C-32.2392468 17.91261041 -31.92160727 22.92994918 -31.3125 28.25 C-29.44593392 32.43110801 -27.98238464 33.85064569 -24.0625 36.1875 C-19.74415677 37.41103058 -16.5759206 37.71890962 -12.3125 36.25 C-8.66473538 33.39522768 -6.48930732 30.7432643 -5.3125 26.25 C-4.83553114 21.00334256 -5.45016706 17.69155111 -8.3125 13.25 C-10.58848911 10.62916405 -12.19972808 9.43236062 -15.6484375 8.8671875 C-21.33529003 8.61102297 -24.94167662 9.31625896 -29.3125 13.25 Z " fill="#0063B0" transform="translate(652.3125,174.75)"/>
<path d="M0 0 C4.37533287 3.32525298 6.49902277 6.56772696 7.72045898 12.04541016 C8.21844367 16.14409159 8.24925584 20.14928129 8.22265625 24.2734375 C8.2212413 25.10839752 8.21982635 25.94335754 8.21836853 26.80361938 C8.21280174 29.45245042 8.20025547 32.1011948 8.1875 34.75 C8.1824807 36.55338419 8.17791855 38.35676971 8.17382812 40.16015625 C8.16369701 44.56516386 8.1441153 48.9699857 8.125 53.375 C2.515 53.375 -3.095 53.375 -8.875 53.375 C-8.92398438 50.81105469 -8.97296875 48.24710938 -9.0234375 45.60546875 C-9.07744219 43.12323146 -9.13475165 40.64109097 -9.19238281 38.15893555 C-9.23067345 36.43342292 -9.26552621 34.70783044 -9.296875 32.98217773 C-9.34252404 30.50215105 -9.40051781 28.02267409 -9.4609375 25.54296875 C-9.47248871 24.77099655 -9.48403992 23.99902435 -9.49594116 23.20365906 C-9.60021273 19.42253326 -9.7284589 17.59481165 -11.875 14.375 C-15.89332694 13.1995113 -15.89332694 13.1995113 -19.875 13.375 C-23.44691483 16.15169769 -24.74703145 17.64134839 -25.53442383 22.15551758 C-25.57521025 23.60970349 -25.58976463 25.06479402 -25.58203125 26.51953125 C-25.59715256 27.28931808 -25.61227386 28.05910492 -25.62785339 28.85221863 C-25.67065263 31.29761218 -25.6795601 33.7417696 -25.6875 36.1875 C-25.71065061 37.85094414 -25.73601713 39.51435902 -25.76367188 41.17773438 C-25.83060055 45.24415838 -25.85163383 49.30716224 -25.875 53.375 C-31.155 53.375 -36.435 53.375 -41.875 53.375 C-41.875 35.225 -41.875 17.075 -41.875 -1.625 C-36.595 -1.625 -31.315 -1.625 -25.875 -1.625 C-25.545 0.025 -25.215 1.675 -24.875 3.375 C-24.17375 2.75625 -23.4725 2.1375 -22.75 1.5 C-15.84968868 -3.6002301 -7.67175309 -3.82762735 0 0 Z " fill="#0063B0" transform="translate(325.875,171.625)"/>
<path d="M0 0 C5.28 0 10.56 0 16 0 C16.06058594 2.48015625 16.12117187 4.9603125 16.18359375 7.515625 C16.24542939 9.92174183 16.3087979 12.32781375 16.37231445 14.73388672 C16.41558489 16.40409334 16.45726549 18.07434194 16.49731445 19.74462891 C16.55520851 22.14758955 16.6188474 24.55034041 16.68359375 26.953125 C16.70030624 27.69806213 16.71701874 28.44299927 16.73423767 29.21051025 C16.83061695 32.59509934 16.96070174 35.7600524 18 39 C23.60553935 40.16396662 23.60553935 40.16396662 28.9375 38.6875 C31.08980875 37.16126242 31.08980875 37.16126242 32 35 C32.15660883 32.37619687 32.2582908 29.77475148 32.31640625 27.1484375 C32.33718735 26.37440582 32.35796844 25.60037415 32.37937927 24.80288696 C32.44483448 22.32701608 32.50374087 19.85103798 32.5625 17.375 C32.60568907 15.69790552 32.64930348 14.02082193 32.69335938 12.34375 C32.80131342 8.22927502 32.90041614 4.11472023 33 0 C38.28 0 43.56 0 49 0 C49 18.15 49 36.3 49 55 C43.72 55 38.44 55 33 55 C32.67 53.35 32.34 51.7 32 50 C31.29875 50.61875 30.5975 51.2375 29.875 51.875 C24.43633742 55.89488103 19.95419296 56.38560149 13.3984375 55.5390625 C7.70862436 54.26024456 4.22494862 50.65825912 1 46 C0.07312675 43.21938025 -0.12193396 41.57948141 -0.11352539 38.7121582 C-0.11344986 37.85149246 -0.11337433 36.99082672 -0.11329651 36.1040802 C-0.10813522 35.17899155 -0.10297394 34.25390289 -0.09765625 33.30078125 C-0.0962413 32.35059616 -0.09482635 31.40041107 -0.09336853 30.4214325 C-0.08776875 27.38508971 -0.07521632 24.34882052 -0.0625 21.3125 C-0.05748497 19.25455836 -0.05292207 17.19661556 -0.04882812 15.13867188 C-0.0377994 10.09241954 -0.02053493 5.04622225 0 0 Z " fill="#0063B0" transform="translate(506,170)"/>
<path d="M0 0 C-0.78741659 4.7990969 -2.49516926 7.87914943 -5 12 C-9.34928683 11.20639131 -13.4133743 9.92894361 -17.59765625 8.5234375 C-20.15468063 7.96629723 -21.55532611 8.15311528 -24 9 C-24 9.99 -24 10.98 -24 12 C-23.45585449 12.20568604 -22.91170898 12.41137207 -22.35107422 12.62329102 C-19.85049363 13.58221024 -17.36321415 14.57195727 -14.875 15.5625 C-13.59109375 16.04686523 -13.59109375 16.04686523 -12.28125 16.54101562 C-6.48834232 18.88045911 -2.18192073 21.47243259 1 27 C1.69140625 30.1328125 1.69140625 30.1328125 1.5625 33.125 C1.54316406 34.11757812 1.52382813 35.11015625 1.50390625 36.1328125 C0.59279145 41.3169851 -2.16323211 44.70057627 -6.265625 47.9296875 C-11.99068188 51.4627181 -19.11587822 51.75672388 -25.56640625 50.5 C-31.99205026 48.92710244 -37.3993767 46.49866098 -43 43 C-41.54955729 38.89041233 -39.48889248 35.56741255 -37 32 C-34.03638002 32.43582647 -31.94881062 33.02857082 -29.3125 34.5 C-24.41673483 36.71695027 -19.34175555 37 -14 37 C-14 35.35 -14 33.7 -14 32 C-15.01707031 31.76216797 -15.01707031 31.76216797 -16.0546875 31.51953125 C-24.67231767 29.35915582 -34.04849101 26.96547099 -39 19 C-40.87810173 15.24379655 -40.51428072 11.09032575 -40 7 C-38.35051302 2.46776474 -35.7270804 -0.93843888 -31.625 -3.5 C-21.00602415 -7.96798418 -9.74858753 -5.0830624 0 0 Z " fill="#0063B0" transform="translate(384,175)"/>
<path d="M0 0 C5.28 0 10.56 0 16 0 C16 4.29 16 8.58 16 13 C20.29 13 24.58 13 29 13 C29 17.95 29 22.9 29 28 C24.71 28 20.42 28 16 28 C16.14033182 31.79194483 16.28700628 35.58345678 16.4375 39.375 C16.47681641 40.45523438 16.51613281 41.53546875 16.55664062 42.6484375 C16.59853516 43.6796875 16.64042969 44.7109375 16.68359375 45.7734375 C16.72025146 46.72653809 16.75690918 47.67963867 16.79467773 48.66162109 C16.85763465 51.02132349 16.85763465 51.02132349 18 53 C21.96388638 53.07622858 25.1273408 52.9681648 29 52 C29 56.62 29 61.24 29 66 C20.87719257 68.99919044 14.34479727 70.39973222 6 67 C3.10716888 64.39794314 1.24039463 61.72118389 0 58 C-0.08378628 55.7161483 -0.10729915 53.429899 -0.09765625 51.14453125 C-0.0962413 50.48289474 -0.09482635 49.82125824 -0.09336853 49.13957214 C-0.08777996 47.03050172 -0.07522965 44.92153823 -0.0625 42.8125 C-0.05748352 41.38086091 -0.05292087 39.94922015 -0.04882812 38.51757812 C-0.0378143 35.01168412 -0.02055755 31.5058525 0 28 C-1.98 28 -3.96 28 -6 28 C-6 23.05 -6 18.1 -6 13 C-4.02 13 -2.04 13 0 13 C0 8.71 0 4.42 0 0 Z " fill="#0063B0" transform="translate(570,157)"/>
<path d="M0 0 C5.28 0 10.56 0 16 0 C16 4.29 16 8.58 16 13 C19.96 13 23.92 13 28 13 C28 17.95 28 22.9 28 28 C24.04 28 20.08 28 16 28 C16.33 36.25 16.66 44.5 17 53 C23.55535135 53.28295823 23.55535135 53.28295823 28 52 C28 56.62 28 61.24 28 66 C19.97631034 68.96259311 14.12899454 69.95905726 5.89453125 67.2421875 C2.96466404 65.32116116 1.70685909 63.04160671 0 60 C-0.45410156 56.38134766 -0.45410156 56.38134766 -0.390625 52.4140625 C-0.38496521 51.71227875 -0.37930542 51.010495 -0.37347412 50.28744507 C-0.35124483 48.06590913 -0.30108056 45.84604077 -0.25 43.625 C-0.22991731 42.11070053 -0.21166964 40.59637554 -0.1953125 39.08203125 C-0.15142633 35.38748732 -0.08249577 31.69390667 0 28 C-2.31 28 -4.62 28 -7 28 C-7 23.05 -7 18.1 -7 13 C-4.69 13 -2.38 13 0 13 C0 8.71 0 4.42 0 0 Z " fill="#0063B0" transform="translate(468,157)"/>
<path d="M0 0 C5.28 0 10.56 0 16 0 C16 4.29 16 8.58 16 13 C19.96 13 23.92 13 28 13 C28 17.95 28 22.9 28 28 C24.04 28 20.08 28 16 28 C16.14010035 31.97944615 16.28679559 35.95845381 16.4375 39.9375 C16.47681641 41.07380859 16.51613281 42.21011719 16.55664062 43.38085938 C16.59853516 44.46044922 16.64042969 45.54003906 16.68359375 46.65234375 C16.72025146 47.65257568 16.75690918 48.65280762 16.79467773 49.68334961 C16.74671841 51.96069188 16.74671841 51.96069188 18 53 C19.69141656 52.91036938 21.37959602 52.75422324 23.0625 52.5625 C24.691875 52.376875 26.32125 52.19125 28 52 C28 56.62 28 61.24 28 66 C20.94065963 68.60652568 15.7089527 70.2572721 8.3125 67.75 C3.99023685 65.46654022 1.55986248 63.67958743 0 59 C-0.08397157 56.64319787 -0.10728187 54.28405919 -0.09765625 51.92578125 C-0.0962413 51.2419487 -0.09482635 50.55811615 -0.09336853 49.8535614 C-0.08777876 47.67316278 -0.07522822 45.49286749 -0.0625 43.3125 C-0.05748367 41.83268378 -0.052921 40.35286594 -0.04882812 38.87304688 C-0.03781271 35.24866443 -0.02055512 31.6243423 0 28 C-2.31 28 -4.62 28 -7 28 C-7 23.05 -7 18.1 -7 13 C-4.69 13 -2.38 13 0 13 C0 8.71 0 4.42 0 0 Z " fill="#0063B0" transform="translate(397,157)"/>
<path d="M0 0 C5.28 0 10.56 0 16 0 C16 18.15 16 36.3 16 55 C10.72 55 5.44 55 0 55 C0 36.85 0 18.7 0 0 Z " fill="#0063B0" transform="translate(436,170)"/>
<path d="M0 0 C5.28 0 10.56 0 16 0 C16 18.15 16 36.3 16 55 C10.72 55 5.44 55 0 55 C0 36.85 0 18.7 0 0 Z " fill="#0063B0" transform="translate(255,170)"/>
<path d="M0 0 C5.61 0 11.22 0 17 0 C17 4.95 17 9.9 17 15 C11.39 15 5.78 15 0 15 C0 10.05 0 5.1 0 0 Z " fill="#0063B0" transform="translate(435,151)"/>
<path d="M0 0 C5.61 0 11.22 0 17 0 C17 4.95 17 9.9 17 15 C11.39 15 5.78 15 0 15 C0 10.05 0 5.1 0 0 Z " fill="#0063B0" transform="translate(254,151)"/>
</svg>
