<?xml version="1.0" encoding="UTF-8"?>
<svg version="1.1" xmlns="http://www.w3.org/2000/svg" width="728" height="312">
<path d="M0 0 C3.40590701 2.09692036 6.20413532 4.52508324 9.09375 7.2890625 C9.42375 4.3190625 9.75375 1.3490625 10.09375 -1.7109375 C19.00375 -1.7109375 27.91375 -1.7109375 37.09375 -1.7109375 C37.09375 26.9990625 37.09375 55.7090625 37.09375 85.2890625 C28.18375 85.2890625 19.27375 85.2890625 10.09375 85.2890625 C9.59875 80.8340625 9.59875 80.8340625 9.09375 76.2890625 C8.59746094 76.75957031 8.10117187 77.23007813 7.58984375 77.71484375 C-0.35832616 84.99940934 -7.71992283 87.63289544 -18.5546875 87.43359375 C-29.08050071 86.78665839 -38.09320412 82.10849923 -45.30859375 74.3984375 C-52.68337991 64.66155602 -55.30214845 53.9001361 -55.21875 41.9140625 C-55.21246582 40.67015747 -55.21246582 40.67015747 -55.20605469 39.40112305 C-55.08849498 33.00099767 -54.27867997 27.27662386 -51.90625 21.2890625 C-51.63941406 20.58910156 -51.37257813 19.88914062 -51.09765625 19.16796875 C-46.53227435 8.75889803 -38.46756567 2.32001482 -28.1484375 -1.81640625 C-19.3309082 -4.24919445 -8.30740859 -3.95455409 0 0 Z M-23.84375 28.7890625 C-27.92192448 34.87176342 -27.78689533 42.56266325 -26.48046875 49.57421875 C-24.79933482 54.92703168 -21.76600362 58.4951592 -16.90625 61.2890625 C-12.02429311 63.15756392 -7.62380204 63.87793807 -2.59375 62.2265625 C2.73802408 59.7864159 6.76305706 55.64965627 9.09375 50.2890625 C10.74805392 42.32295287 10.3206317 35.49996334 5.98828125 28.50390625 C2.79122201 24.29289294 -0.74479744 21.76504328 -6.0078125 20.97265625 C-13.41651039 20.57803488 -19.33179094 22.7774265 -23.84375 28.7890625 Z " fill="#000000" transform="translate(659.90625,71.7109375)"/>
<path d="M0 0 C10.5104434 7.15724564 16.98134951 16.64731385 19.59765625 29.21875 C21.32251248 42.94647172 19.35167426 56.33460615 11.2109375 67.69921875 C4.01779129 76.5574451 -6.18663379 82.35611263 -17.54296875 84.0234375 C-31.40616353 85.20235485 -43.51647351 83.42968086 -55.0234375 75.234375 C-56.6321875 74.0896875 -56.6321875 74.0896875 -58.2734375 72.921875 C-67.71329109 63.69656354 -71.3704493 52.24656763 -71.5234375 39.234375 C-71.37264641 26.40905433 -67.75750599 15.61105837 -59.05859375 6.08203125 C-44.04786876 -8.49438705 -17.83925667 -10.41775713 0 0 Z M-39.2734375 24.671875 C-43.72921982 31.1964134 -43.64053071 37.54444428 -43.0234375 45.234375 C-41.8961928 49.92437121 -39.41989879 53.83791371 -36.0234375 57.234375 C-31.21516556 60.06277026 -27.55382895 60.66105681 -22.1640625 59.80859375 C-16.72779841 58.35032583 -13.03010459 54.85175661 -10.0234375 50.234375 C-7.1347151 42.72369675 -6.94718161 35.42673181 -10.11328125 28.01953125 C-12.70180177 22.94247598 -15.63567861 20.13006794 -21.0234375 18.234375 C-29.03262076 17.16474466 -33.69643173 18.63011875 -39.2734375 24.671875 Z " fill="#000000" transform="translate(480.0234375,74.765625)"/>
<path d="M0 0 C7.20662129 5.91088534 10.83038233 13.38782576 12.75 22.375 C13.13530412 27.08136634 13.10092782 31.75709214 13.04296875 36.4765625 C13.03872391 37.79417572 13.03447906 39.11178894 13.03010559 40.46932983 C13.01876133 43.93818881 12.98938711 47.4066588 12.95599365 50.87536621 C12.92506512 54.4285751 12.91138655 57.98184996 12.89648438 61.53515625 C12.8661041 68.48211209 12.8073605 75.42800588 12.75 82.375 C3.84 82.375 -5.07 82.375 -14.25 82.375 C-14.30607422 76.991875 -14.30607422 76.991875 -14.36328125 71.5 C-14.40954747 68.00824026 -14.46076274 64.51658554 -14.51245117 61.02490234 C-14.54561976 58.60602244 -14.57367658 56.18706665 -14.59643555 53.76806641 C-14.63012935 50.2825499 -14.6824544 46.79772385 -14.73828125 43.3125 C-14.74467117 42.23822754 -14.7510611 41.16395508 -14.75764465 40.05712891 C-14.87863296 33.81978338 -15.54136918 29.02807662 -18.25 23.375 C-22.13630654 19.76628678 -25.83606161 18.63431645 -31.0078125 18.27734375 C-35.97823063 18.49382538 -39.26047595 20.33339574 -42.625 23.875 C-45.00386638 27.53479442 -45.38433168 30.31123398 -45.45532227 34.58081055 C-45.47526749 35.64168381 -45.49521271 36.70255707 -45.51576233 37.795578 C-45.53247482 38.93940445 -45.54918732 40.0832309 -45.56640625 41.26171875 C-45.58718735 42.43386429 -45.60796844 43.60600983 -45.62937927 44.81367493 C-45.69483818 48.56322286 -45.75374296 52.31284163 -45.8125 56.0625 C-45.85568868 58.60222091 -45.89930308 61.14193462 -45.94335938 63.68164062 C-46.05131804 69.91268882 -46.15041928 76.14378969 -46.25 82.375 C-55.49 82.375 -64.73 82.375 -74.25 82.375 C-74.25 53.665 -74.25 24.955 -74.25 -4.625 C-65.01 -4.625 -55.77 -4.625 -46.25 -4.625 C-45.92 -1.985 -45.59 0.655 -45.25 3.375 C-44.77691406 2.97667969 -44.30382812 2.57835938 -43.81640625 2.16796875 C-31.28899728 -7.86861037 -13.58639983 -9.228498 0 0 Z " fill="#000000" transform="translate(383.25,74.625)"/>
<path d="M0 0 C7.20662129 5.91088534 10.83038233 13.38782576 12.75 22.375 C13.13530412 27.08136634 13.10092782 31.75709214 13.04296875 36.4765625 C13.03872391 37.79417572 13.03447906 39.11178894 13.03010559 40.46932983 C13.01876133 43.93818881 12.98938711 47.4066588 12.95599365 50.87536621 C12.92506512 54.4285751 12.91138655 57.98184996 12.89648438 61.53515625 C12.8661041 68.48211209 12.8073605 75.42800588 12.75 82.375 C3.84 82.375 -5.07 82.375 -14.25 82.375 C-14.30607422 76.991875 -14.30607422 76.991875 -14.36328125 71.5 C-14.40954747 68.00824026 -14.46076274 64.51658554 -14.51245117 61.02490234 C-14.54561976 58.60602244 -14.57367658 56.18706665 -14.59643555 53.76806641 C-14.63012935 50.2825499 -14.6824544 46.79772385 -14.73828125 43.3125 C-14.74467117 42.23822754 -14.7510611 41.16395508 -14.75764465 40.05712891 C-14.87863296 33.81978338 -15.54136918 29.02807662 -18.25 23.375 C-22.13630654 19.76628678 -25.83606161 18.63431645 -31.0078125 18.27734375 C-35.97823063 18.49382538 -39.26047595 20.33339574 -42.625 23.875 C-45.00386638 27.53479442 -45.38433168 30.31123398 -45.45532227 34.58081055 C-45.47526749 35.64168381 -45.49521271 36.70255707 -45.51576233 37.795578 C-45.53247482 38.93940445 -45.54918732 40.0832309 -45.56640625 41.26171875 C-45.58718735 42.43386429 -45.60796844 43.60600983 -45.62937927 44.81367493 C-45.69483818 48.56322286 -45.75374296 52.31284163 -45.8125 56.0625 C-45.85568868 58.60222091 -45.89930308 61.14193462 -45.94335938 63.68164062 C-46.05131804 69.91268882 -46.15041928 76.14378969 -46.25 82.375 C-55.49 82.375 -64.73 82.375 -74.25 82.375 C-74.25 53.665 -74.25 24.955 -74.25 -4.625 C-65.01 -4.625 -55.77 -4.625 -46.25 -4.625 C-45.92 -1.985 -45.59 0.655 -45.25 3.375 C-44.77691406 2.97667969 -44.30382812 2.57835938 -43.81640625 2.16796875 C-31.28899728 -7.86861037 -13.58639983 -9.228498 0 0 Z " fill="#000000" transform="translate(205.25,74.625)"/>
<path d="M0 0 C6.27 0 12.54 0 19 0 C25.13041771 20.8765576 30.53232488 41.94229874 36 63 C37.71790692 59.85962738 38.68979162 56.80547496 39.58813477 53.34521484 C39.88506729 52.21078949 40.18199982 51.07636414 40.4879303 49.90756226 C40.80257736 48.68767609 41.11722443 47.46778992 41.44140625 46.2109375 C41.94205478 44.29417059 42.4427055 42.37740426 42.94348812 40.46067238 C43.64251126 37.78077398 44.33750134 35.0998363 45.0324707 32.41888428 C46.25146497 27.71823239 47.47477139 23.0187055 48.70115662 18.31997681 C49.35353791 15.81879816 50.0035504 13.31700027 50.65101624 10.81454468 C50.9447966 9.68642365 51.23857697 8.55830261 51.54125977 7.39599609 C51.79948013 6.39990326 52.0577005 5.40381042 52.32374573 4.37753296 C53 2 53 2 54 0 C60.6 0 67.2 0 74 0 C79.28 20.79 84.56 41.58 90 63 C92.49616912 55.54094961 92.49616912 55.54094961 94.62573242 48.02124023 C94.90579636 46.94079941 95.18586029 45.86035858 95.47441101 44.74717712 C95.76516006 43.61244461 96.05590912 42.4777121 96.35546875 41.30859375 C96.66196854 40.12274185 96.96846832 38.93688995 97.28425598 37.71510315 C98.25495967 33.95665734 99.22129488 30.1971045 100.1875 26.4375 C100.84801824 23.87687855 101.50882256 21.31633087 102.16992188 18.75585938 C103.78325926 12.50475503 105.39268186 6.25265463 107 0 C113.27 0 119.54 0 126 0 C123.64108022 9.93302093 120.72576808 19.62371636 117.67578125 29.359375 C117.16411037 31.00123118 116.65273761 32.64318028 116.14164734 34.28521729 C114.80808479 38.56692717 113.47052754 42.84737849 112.13208008 47.12756348 C110.76202896 51.51135974 109.39583464 55.89635754 108.02929688 60.28125 C105.35659706 68.85533534 102.67931144 77.42797842 100 86 C93.4 86 86.8 86 80 86 C76.62416285 76.99776761 76.62416285 76.99776761 75.46606445 72.7331543 C75.20602127 71.78244553 74.94597809 70.83173676 74.67805481 69.85221863 C74.40917953 68.85297867 74.14030426 67.85373871 73.86328125 66.82421875 C73.43682564 65.25375542 73.43682564 65.25375542 73.00175476 63.65156555 C72.40575927 61.45271468 71.81169964 59.25333828 71.21948242 57.0534668 C70.31027465 53.67924136 69.39284838 50.30732441 68.47460938 46.93554688 C67.89534154 44.79440382 67.31654866 42.65313221 66.73828125 40.51171875 C66.3258593 38.99767708 66.3258593 38.99767708 65.90510559 37.45304871 C65.65451889 36.51810074 65.40393219 35.58315277 65.14575195 34.61987305 C64.92385696 33.79794968 64.70196198 32.97602631 64.4733429 32.12919617 C64 30 64 30 64 27 C63.34 27 62.68 27 62 27 C61.90017822 28.07378906 61.80035645 29.14757812 61.69750977 30.25390625 C60.97918686 35.96231661 59.38951639 41.4080163 57.83984375 46.9375 C57.53051407 48.05817871 57.22118439 49.17885742 56.90248108 50.33349609 C55.91939458 53.89047304 54.92856922 57.44523996 53.9375 61 C53.26706495 63.42043083 52.59713757 65.84100234 51.92773438 68.26171875 C50.29102914 74.17612401 48.64738286 80.08856038 47 86 C40.07 86 33.14 86 26 86 C22.90138557 76.11711317 19.80594556 66.23324719 16.71599007 56.34764957 C15.28087991 51.756785 13.8444156 47.16635358 12.40478516 42.5769043 C11.01397709 38.1429192 9.62681957 33.7078069 8.24212265 29.27190971 C7.71477386 27.58475032 7.1861393 25.89799222 6.65616226 24.21165657 C5.91069686 21.83886936 5.16993119 19.46466049 4.43017578 17.09008789 C4.21294861 16.40243851 3.99572144 15.71478912 3.77191162 15.00630188 C2.22413201 10.01365604 1.14407392 5.14833264 0 0 Z " fill="#000000" transform="translate(579,213)"/>
<path d="M0 0 C1.88428711 0.04737305 1.88428711 0.04737305 3.80664062 0.09570312 C6.89434881 0.17788547 9.97719797 0.2927323 13.0625 0.4375 C12.29960945 5.16999073 10.80481547 7.23994869 7.5625 10.8125 C-12.51848056 34.0259401 -21.41817207 65.79783475 -19.71875 96.1875 C-17.65078989 123.48906289 -7.78558434 148.66649231 10.41015625 169.1328125 C12.0625 171.4375 12.0625 171.4375 12.0625 175.4375 C-13.95406266 177.67779302 -13.95406266 177.67779302 -19.96484375 173.03515625 C-22.46725245 170.42306203 -24.28756137 167.48819482 -25.9609375 164.29296875 C-26.89916472 162.51033704 -27.99477375 160.81328236 -29.09375 159.125 C-48.48708269 128.44301097 -51.15597646 87.92425692 -43.44970703 53.2421875 C-39.52212494 36.64145629 -32.29778939 20.27956627 -20.9375 7.4375 C-20.2736731 6.51408813 -20.2736731 6.51408813 -19.59643555 5.57202148 C-14.18569734 -1.13492484 -8.10383231 -0.38670621 0 0 Z " fill="#000000" transform="translate(61.9375,14.5625)"/>
<path d="M0 0 C4.31132098 -0.26362734 8.62055232 -0.42194822 12.9375 -0.5625 C14.14986328 -0.63791016 15.36222656 -0.71332031 16.61132812 -0.79101562 C25.48397706 -1.0074217 25.48397706 -1.0074217 29.72460938 1.81054688 C32.05310871 4.08520808 34.04598813 6.39915745 36 9 C36.46817139 9.59772217 36.93634277 10.19544434 37.41870117 10.8112793 C58.40028418 39.24143254 63.79019236 77.06770879 58.875 111.375 C55.47935103 132.12130632 48.34918497 151.57999491 35 168 C34.64631348 168.609646 34.29262695 169.21929199 33.92822266 169.84741211 C32.44192771 172.10709393 31.25402232 173.48116716 29 175 C24.18300391 175.86621089 19.49904276 175.65993625 14.625 175.4375 C13.31660156 175.40591797 12.00820312 175.37433594 10.66015625 175.34179688 C7.43780754 175.2594741 4.22006009 175.14451838 1 175 C1.77135785 170.067795 3.89886871 167.29421857 7.0625 163.5625 C27.00510064 138.95778263 35.56774926 106.34780856 32.375 74.9375 C29.38940464 50.38626124 20.37825439 26.49105643 3.4543457 8.21044922 C0.64376457 5.11373091 0 4.38039351 0 0 Z " fill="#000000" transform="translate(227,15)"/>
<path d="M0 0 C9.57 0 19.14 0 29 0 C33.5 11.25 33.5 11.25 34.73925781 15.44970703 C35.01924622 16.38992706 35.29923462 17.33014709 35.58770752 18.29885864 C35.87329529 19.27531342 36.15888306 20.25176819 36.453125 21.2578125 C36.75820984 22.28687714 37.06329468 23.31594177 37.37762451 24.37619019 C38.33954294 27.62449477 39.29487812 30.87469129 40.25 34.125 C40.90581355 36.34387904 41.56205951 38.56263033 42.21875 40.78125 C43.81749843 46.18603418 45.4108641 51.59238219 47 57 C48.91135104 54.13297343 49.71066597 52.07336647 50.67993164 48.81005859 C50.99688492 47.75241302 51.3138382 46.69476746 51.64039612 45.60507202 C51.97691696 44.46438263 52.31343781 43.32369324 52.66015625 42.1484375 C53.0100914 40.97866364 53.36002655 39.80888977 53.7205658 38.60366821 C54.83931016 34.86218158 55.95141394 31.11876741 57.0625 27.375 C58.17779015 23.62428858 59.29453276 19.8740331 60.41514587 16.12490845 C61.11288245 13.78992477 61.80742086 11.45398272 62.49855042 9.11703491 C62.81235153 8.06569366 63.12615265 7.01435242 63.44946289 5.93115234 C63.86344078 4.53574722 63.86344078 4.53574722 64.28578186 3.1121521 C65 1 65 1 66 0 C68.14558827 -0.08775605 70.29404421 -0.10695219 72.44140625 -0.09765625 C73.74658203 -0.09443359 75.05175781 -0.09121094 76.39648438 -0.08789062 C77.7851569 -0.07953401 79.17382877 -0.07106905 80.5625 -0.0625 C81.95507656 -0.05748666 83.34765481 -0.05292347 84.74023438 -0.04882812 C88.1601987 -0.03699434 91.58007844 -0.0205088 95 0 C94.2358796 4.70380608 92.69005264 9.04530529 91.11328125 13.5234375 C90.81935486 14.36610672 90.52542847 15.20877594 90.22259521 16.07698059 C89.25606304 18.84422536 88.28445706 21.60965643 87.3125 24.375 C86.64173835 26.2907339 85.9710853 28.20650583 85.30053711 30.12231445 C78.64132151 49.12009718 71.83814839 68.06602056 65 87 C53.45 87 41.9 87 30 87 C28.92363281 83.95265625 27.84726562 80.9053125 26.73828125 77.765625 C25.65079193 74.68912264 24.5628627 71.61277626 23.474823 68.53646851 C22.70177884 66.350686 21.9289304 64.16483426 21.15628052 61.97891235 C17.13523559 50.60585998 13.10382219 39.23735452 8.9765625 27.90234375 C8.51877663 26.64361954 8.51877663 26.64361954 8.05174255 25.35946655 C6.6281524 21.44777308 5.19883469 17.53831045 3.76098633 13.63183594 C3.25587397 12.24810095 2.75090095 10.86431509 2.24609375 9.48046875 C1.80966553 8.29348389 1.3732373 7.10649902 0.92358398 5.88354492 C0 3 0 3 0 0 Z " fill="#000000" transform="translate(505,70)"/>
<path d="M0 0 C0.92393555 0.00757324 1.84787109 0.01514648 2.79980469 0.02294922 C9.69881412 0.18952735 15.50725352 1.06435896 21.625 4.4375 C22.4190625 4.87320313 23.213125 5.30890625 24.03125 5.7578125 C34.19677888 11.95878512 40.36725894 20.80634409 43.375 32.3046875 C46.06730803 45.80362082 44.46457722 59.10878339 37.265625 71.04296875 C30.91154708 80.31689676 19.9515878 87.07758479 8.80078125 89.2265625 C-6.43872465 90.70400113 -17.94618632 87.8490933 -30.5 79.3125 C-39.4070689 71.42267295 -43.31567338 60.2389582 -44.25 48.75 C-45.03572544 35.24692815 -41.62077115 23.78662819 -33.1875 13.25 C-24.38710752 3.66692619 -12.70300513 -0.14609152 0 0 Z M-18.25 24.25 C-24.44174089 32.06133978 -25.93713879 40.33410986 -25.16015625 50.15234375 C-23.97481725 57.47886769 -20.9613488 63.37405248 -15.375 68.3125 C-9.92475022 72.1730936 -4.04615201 73.99910797 2.671875 73.19140625 C10.93188851 71.38252732 16.88264508 67.37858311 21.625 60.4375 C25.89698251 52.60553206 26.10772318 42.20098848 23.8984375 33.61328125 C22.96896943 31.38784754 21.94551978 29.45280306 20.625 27.4375 C20.25117187 26.86644531 19.87734375 26.29539063 19.4921875 25.70703125 C15.77930583 20.72783563 10.70150178 17.64823156 4.625 16.4375 C-4.61531434 15.46399538 -11.83688022 17.32598179 -18.25 24.25 Z " fill="#000000" transform="translate(528.375,211.5625)"/>
<path d="M0 0 C7.5345726 5.01438797 12.15203351 11.97822978 14.57687378 20.67398071 C15.54209417 25.98001264 15.23877091 31.43533262 15.1953125 36.80859375 C15.19157667 38.14380175 15.18873239 39.47901251 15.18673706 40.81422424 C15.17914541 44.30768566 15.15953606 47.80097755 15.1373291 51.29437256 C15.11677371 54.86744901 15.10771473 58.44055318 15.09765625 62.01367188 C15.07628532 69.00919073 15.04114028 76.00456974 15 83 C9.06 83 3.12 83 -3 83 C-3.01458252 81.47713379 -3.02916504 79.95426758 -3.04418945 78.38525391 C-3.10244099 72.70077789 -3.17967204 67.0166869 -3.26245117 61.33251953 C-3.29557451 58.87880736 -3.32364506 56.4250213 -3.34643555 53.97119141 C-3.38021329 50.43099672 -3.43254167 46.89147151 -3.48828125 43.3515625 C-3.49467117 42.26573883 -3.5010611 41.17991516 -3.50764465 40.06118774 C-3.6429463 32.95012414 -3.80924634 24.69840593 -8.67500305 19.0585022 C-14.08571159 14.09813968 -19.08102849 12.49975188 -26.37109375 12.6953125 C-31.61556497 13.30314126 -36.13169554 14.82402726 -39.63671875 18.90625 C-42.97602286 24.03480874 -44.10542032 28.30284221 -44.20532227 34.41113281 C-44.22526749 35.49195129 -44.24521271 36.57276978 -44.26576233 37.68634033 C-44.29083107 39.42714874 -44.29083107 39.42714874 -44.31640625 41.203125 C-44.33718735 42.39605164 -44.35796844 43.58897827 -44.37937927 44.8180542 C-44.44476239 48.62864423 -44.50370776 52.43930314 -44.5625 56.25 C-44.60569589 58.83334046 -44.64931052 61.41667395 -44.69335938 64 C-44.80043237 70.33326274 -44.90173174 76.66659477 -45 83 C-51.27 83 -57.54 83 -64 83 C-64 54.62 -64 26.24 -64 -3 C-57.73 -3 -51.46 -3 -45 -3 C-44.67 -0.69 -44.34 1.62 -44 4 C-43.41992188 3.59007812 -42.83984375 3.18015625 -42.2421875 2.7578125 C-41.46101563 2.21898437 -40.67984375 1.68015625 -39.875 1.125 C-39.10929687 0.59132812 -38.34359375 0.05765625 -37.5546875 -0.4921875 C-27.00875508 -6.71654517 -10.50967021 -5.9601821 0 0 Z " fill="#000000" transform="translate(453,216)"/>
<path d="M0 0 C9.24 0 18.48 0 28 0 C28 28.71 28 57.42 28 87 C18.76 87 9.52 87 0 87 C0 58.29 0 29.58 0 0 Z " fill="#000000" transform="translate(85,70)"/>
<path d="M0 0 C3.3435476 3.51072498 4.27275047 6.27036909 4.5 11 C4.30276179 15.68440761 3.14463293 18.41861249 0 22 C-4.53134921 25.98209476 -8.6678101 26.2957077 -14.5 26.2109375 C-19.4599304 25.79244337 -22.2048501 23.6914347 -25.875 20.5 C-28.7291662 16.82641189 -28.58114658 13.05604528 -28.35546875 8.5546875 C-27.71215469 3.93130951 -25.91471876 1.84435578 -22.5625 -1.25 C-15.37878699 -6.15595035 -6.84781612 -4.84801141 0 0 Z " fill="#000000" transform="translate(111,36)"/>
</svg>
